<?xml version="1.0" encoding="UTF-8" standalone="no"?>
<svg width="15px" height="9px" viewBox="0 0 15 9" version="1.1" xmlns="http://www.w3.org/2000/svg" xmlns:xlink="http://www.w3.org/1999/xlink">
    <!-- Generator: Sketch 3.7.2 (28276) - http://www.bohemiancoding.com/sketch -->
    <title>Fill 55</title>
    <desc>Created with Sketch.</desc>
    <defs></defs>
    <g id="Page-1" stroke="none" stroke-width="1" fill="none" fill-rule="evenodd">
        <path d="M0.945692884,9 L14.0812266,9 C14.3176498,9 14.554073,8.88757807 14.7378277,8.69146426 C14.9215824,8.49535045 15,8.27175573 15,7.9907009 C15,7.73837613 14.9215824,7.48605135 14.7378277,7.28993754 L8.16947566,0.308535739 C7.98572097,0.112421929 7.74929775,0 7.51287453,0 C7.25070225,0 7.04002809,0.112421929 6.85627341,0.308535739 L0.28909176,7.28993754 C0.105337079,7.48605135 0,7.73837613 0,7.9907009 C0,8.27175573 0.105337079,8.49535045 0.28909176,8.69146426 C0.472846442,8.88757807 0.682350187,9 0.945692884,9" id="Fill-55" fill="#808080" transform="translate(7.500000, 4.500000) scale(1, -1) translate(-7.500000, -4.500000) "></path>
    </g>
</svg>