<?xml version="1.0" encoding="utf-8"?>
<!-- Generator: Adobe Illustrator 16.0.0, SVG Export Plug-In . SVG Version: 6.00 Build 0)  -->
<!DOCTYPE svg PUBLIC "-//W3C//DTD SVG 1.1//EN" "http://www.w3.org/Graphics/SVG/1.1/DTD/svg11.dtd">
<svg version="1.1" id="Layer_1" xmlns="http://www.w3.org/2000/svg" xmlns:xlink="http://www.w3.org/1999/xlink" x="0px" y="0px"
	 width="53.58px" height="32.551px" viewBox="0 0 53.58 32.551" enable-background="new 0 0 53.58 32.551" xml:space="preserve">
<g>
	<defs>
		<rect id="SVGID_1_" width="53.58" height="32.551"/>
	</defs>
	<clipPath id="SVGID_2_">
		<use xlink:href="#SVGID_1_"  overflow="visible"/>
	</clipPath>
	<path clip-path="url(#SVGID_2_)" fill="#B94D78" d="M29.249,31.549c0,0.207,0.103,0.311,0.312,0.311h0.177
		c0.207,0,0.312-0.104,0.312-0.311V1.801l22.954,30.592c0.089,0.146,0.207,0.191,0.354,0.133c0.148-0.061,0.223-0.164,0.223-0.311
		V1.091c0-0.207-0.104-0.312-0.311-0.312h-0.178c-0.207,0-0.311,0.104-0.311,0.312v29.66L29.826,0.157
		c-0.089-0.147-0.207-0.191-0.355-0.133c-0.147,0.061-0.222,0.163-0.222,0.312V31.549z"/>
	<path clip-path="url(#SVGID_2_)" fill="#43B2D9" d="M11.8,31.549c0,0.207,0.103,0.311,0.311,0.311h0.177
		c0.207,0,0.311-0.104,0.311-0.311V16.586L24.321,1.312c0.118-0.147,0.103-0.281-0.045-0.399L24.01,0.734
		c-0.119-0.088-0.237-0.044-0.355,0.135L12.2,15.92L0.744,0.869C0.685,0.81,0.633,0.758,0.589,0.713
		c-0.044-0.044-0.111-0.037-0.2,0.021L0.123,0.913C-0.025,1.031-0.04,1.165,0.078,1.312L11.8,16.631V31.549z"/>
</g>
</svg>
